<svg width="16.000000" height="16.000000" viewBox="0 0 16 16" fill="none" xmlns="http://www.w3.org/2000/svg" xmlns:xlink="http://www.w3.org/1999/xlink">
	<desc>
			Created with Pixso.
	</desc>
	<defs>
		<clipPath id="clip1_782">
			<rect id="IMAGE" rx="0.000000" width="15.000000" height="15.000000" transform="translate(0.500000 0.500000)" fill="white" fill-opacity="0"/>
		</clipPath>
	</defs>
	<g clip-path="url(#clip1_782)">
		<path id="Vector" d="M15.96 3.04C15.37 3.3 14.74 3.48 14.08 3.56C14.76 3.15 15.28 2.51 15.52 1.74C14.89 2.11 14.19 2.38 13.44 2.53C12.84 1.89 11.99 1.49 11.04 1.49C9.23 1.49 7.76 2.96 7.76 4.77C7.76 5.03 7.79 5.28 7.85 5.52C5.12 5.39 2.71 4.08 1.09 2.1C0.8 2.58 0.64 3.14 0.64 3.75C0.64 4.89 1.22 5.89 2.1 6.48C1.57 6.47 1.06 6.32 0.62 6.07L0.62 6.11C0.62 7.7 1.75 9.03 3.25 9.33C2.97 9.4 2.68 9.44 2.38 9.44C2.17 9.44 1.97 9.42 1.77 9.39C2.19 10.69 3.4 11.64 4.84 11.67C3.72 12.54 2.3 13.07 0.78 13.07C0.52 13.07 0.26 13.05 0 13.02C1.45 13.95 3.17 14.5 5.03 14.5C11.07 14.5 14.37 9.5 14.37 5.17C14.37 5.03 14.37 4.89 14.36 4.75C15 4.29 15.56 3.71 16 3.05L15.96 3.04Z" fill="#FFFFFF" fill-opacity="1.000000" fill-rule="nonzero"/>
	</g>
</svg>
