<svg width="16.000000" height="16.000000" viewBox="0 0 16 16" fill="none" xmlns="http://www.w3.org/2000/svg" xmlns:xlink="http://www.w3.org/1999/xlink">
	<desc>
			Created with Pixso.
	</desc>
	<defs>
		<clipPath id="clip1_788">
			<rect id="IMAGE" rx="0.000000" width="15.000000" height="15.000000" transform="translate(0.500000 0.500000)" fill="white" fill-opacity="0"/>
		</clipPath>
	</defs>
	<g clip-path="url(#clip1_788)">
		<path id="Vector" d="M8 0.11C3.65 0.11 0.11 3.65 0.11 8C0.11 12.34 3.65 15.88 8 15.88C12.34 15.88 15.88 12.34 15.88 8C15.88 3.65 12.34 0.11 8 0.11ZM8 1.37C9.71 1.37 11.2 2.05 12.34 2.97C12.22 3.2 12 3.31 11.77 3.65C11.2 4.22 10.28 4.91 8.91 5.37C8 3.65 7.08 2.39 6.51 1.6C6.97 1.48 7.54 1.37 8 1.37ZM5.25 2.05C5.71 2.74 6.74 4 7.65 5.82C5.02 6.51 2.51 6.62 1.59 6.62C1.94 4.57 3.31 2.85 5.25 2.05ZM13.25 4C14.05 5.02 14.51 6.39 14.62 7.77C14.05 7.65 13.14 7.54 12 7.54C11.42 7.54 10.74 7.54 10.05 7.65C9.94 7.31 9.71 6.97 9.48 6.51C10.97 5.94 12 5.14 12.68 4.57C12.91 4.45 13.14 4.22 13.25 4ZM8.22 6.97C8.34 7.31 8.57 7.54 8.68 7.88C5.82 8.68 3.88 11.08 2.97 12.22C2.05 11.2 1.37 9.6 1.37 8C1.37 8 1.37 8 1.37 7.88C2.28 7.88 5.14 7.88 8.22 6.97ZM12 8.91C13.14 8.91 13.94 9.02 14.51 9.25C14.17 10.97 13.25 12.57 11.77 13.48C11.54 11.77 11.08 10.28 10.62 8.91C11.08 8.91 11.54 8.91 12 8.91ZM9.25 9.14C9.82 10.62 10.4 12.34 10.62 14.05C9.82 14.39 8.91 14.62 8 14.62C6.51 14.62 5.14 14.17 4 13.25C4.68 12.34 6.62 9.82 9.25 9.14Z" fill="#FFFFFF" fill-opacity="1.000000" fill-rule="nonzero"/>
	</g>
</svg>
