<svg width="16.000000" height="16.000000" viewBox="0 0 16 16" fill="none" xmlns="http://www.w3.org/2000/svg" xmlns:xlink="http://www.w3.org/1999/xlink">
	<desc>
			Created with Pixso.
	</desc>
	<defs/>
	<path id="Vector" d="M8 0C5.82 0 5.55 0 4.7 0.04C3.84 0.08 3.27 0.22 2.76 0.41C2.23 0.62 1.78 0.89 1.34 1.34C0.89 1.78 0.62 2.23 0.41 2.75C0.22 3.27 0.08 3.85 0.04 4.7C0 5.55 0 5.82 0 8C0 10.17 0.01 10.44 0.04 11.29C0.08 12.14 0.22 12.73 0.41 13.24C0.62 13.76 0.89 14.21 1.34 14.65C1.78 15.1 2.23 15.37 2.76 15.58C3.27 15.77 3.85 15.91 4.7 15.95C5.55 15.99 5.82 16 8 16C10.17 16 10.44 15.98 11.29 15.95C12.14 15.91 12.73 15.77 13.24 15.58C13.76 15.37 14.21 15.1 14.65 14.65C15.1 14.21 15.37 13.76 15.58 13.24C15.77 12.73 15.91 12.14 15.95 11.29C15.99 10.44 16 10.17 16 8C16 5.82 15.98 5.55 15.95 4.7C15.91 3.85 15.77 3.26 15.58 2.75C15.37 2.23 15.1 1.78 14.65 1.34C14.21 0.89 13.76 0.62 13.24 0.41C12.73 0.22 12.14 0.08 11.29 0.04C10.44 0 10.17 0 8 0ZM8 1.43C10.13 1.43 10.39 1.45 11.23 1.48C12.01 1.52 12.43 1.65 12.71 1.76C13.09 1.9 13.35 2.08 13.63 2.36C13.91 2.64 14.09 2.9 14.23 3.28C14.34 3.56 14.47 3.98 14.51 4.76C14.54 5.61 14.55 5.86 14.55 8C14.55 10.13 14.54 10.39 14.5 11.23C14.46 12.01 14.33 12.43 14.22 12.71C14.07 13.09 13.9 13.35 13.62 13.63C13.34 13.91 13.08 14.09 12.7 14.23C12.42 14.34 11.99 14.47 11.21 14.51C10.37 14.54 10.12 14.55 7.97 14.55C5.83 14.55 5.58 14.54 4.74 14.5C3.96 14.46 3.53 14.33 3.25 14.22C2.87 14.07 2.6 13.9 2.33 13.62C2.04 13.35 1.87 13.08 1.73 12.7C1.62 12.42 1.49 11.99 1.45 11.21C1.42 10.37 1.4 10.12 1.4 7.99C1.4 5.85 1.42 5.59 1.45 4.74C1.49 3.96 1.62 3.54 1.73 3.25C1.87 2.87 2.04 2.62 2.33 2.33C2.6 2.06 2.87 1.87 3.25 1.74C3.53 1.62 3.95 1.5 4.73 1.45C5.58 1.43 5.83 1.41 7.96 1.41L8 1.43ZM8 3.89C5.72 3.89 3.89 5.73 3.89 8C3.89 10.27 5.73 12.1 8 12.1C10.27 12.1 12.1 10.26 12.1 8C12.1 5.72 10.26 3.89 8 3.89ZM8 10.66C6.52 10.66 5.33 9.47 5.33 8C5.33 6.52 6.52 5.33 8 5.33C9.47 5.33 10.66 6.52 10.66 8C10.66 9.47 9.47 10.66 8 10.66ZM13.23 3.72C13.23 4.25 12.8 4.68 12.27 4.68C11.74 4.68 11.31 4.25 11.31 3.72C11.31 3.2 11.74 2.77 12.27 2.77C12.79 2.77 13.23 3.2 13.23 3.72Z" fill="#FFFFFF" fill-opacity="1.000000" fill-rule="nonzero"/>
</svg>
